<svg width="84" height="58" viewBox="0 0 84 58" fill="none" xmlns="http://www.w3.org/2000/svg">
<path d="M62.2404 12.8405C62.3245 22.3134 61.5844 31.7757 60.0285 41.1203L63.5929 37.2962C63.3175 35.5533 62.9498 33.5035 61.3497 32.463C59.6817 31.3788 57.489 31.8669 55.7373 32.463C51.5368 33.8713 47.7388 36.2261 43.5905 37.7651C40.5072 38.898 35.707 40.2227 33.2913 37.0941C32.1252 35.5864 32.0607 33.5488 32.113 31.7257C32.181 29.3186 32.3134 26.9116 32.418 24.5045L33.1414 7.5837C32.9775 7.77981 32.7986 7.9628 32.6063 8.13099C32.181 8.5772 31.7609 9.02688 31.3391 9.47657C30.9173 9.92626 30.5008 10.3794 30.0842 10.8344C29.9831 10.9459 29.5822 11.2701 29.5752 11.4078L28.6148 33.8556C28.5312 35.8147 28.3098 37.9603 29.0924 39.8183C30.689 43.6058 35.3846 43.0812 38.5864 42.0737C42.7696 40.7613 46.5327 38.4571 50.5955 36.8553C52.5546 36.0814 54.9826 35.1367 57.0812 35.935C59.2128 36.7455 59.7061 39.1159 60.0251 41.1203C60.1939 40.9289 60.3725 40.7462 60.5602 40.573C60.9854 40.1268 61.4055 39.6772 61.8256 39.2257C62.2456 38.7743 62.6657 38.3246 63.0822 37.8697C63.1973 37.7424 63.5633 37.4583 63.5894 37.2962C65.1475 27.9542 65.8894 18.4942 65.8065 9.0234C65.6409 9.21783 65.4621 9.40069 65.2714 9.57069C64.8461 10.0169 64.4238 10.4654 64.0043 10.9163C63.5842 11.3677 63.1642 11.8191 62.7493 12.2741C62.6535 12.3786 62.2386 12.7203 62.2404 12.8475V12.8405Z" fill="black"/>
<path d="M62.2473 12.8213C68.4011 10.712 74.1978 7.67819 79.4383 3.82409C80.1076 3.33257 80.6741 2.53778 81.2406 1.93122C81.807 1.32466 82.3387 0.482805 83.0045 0C77.7643 3.85422 71.9674 6.88753 65.8135 8.99551C65.6793 9.04257 65.3254 9.49574 65.2784 9.54455C64.8531 9.99075 64.433 10.4404 64.0112 10.8901C63.5894 11.3398 63.1729 11.793 62.7563 12.2479C62.6413 12.3751 62.3972 12.7708 62.2473 12.8213Z" fill="black"/>
<path d="M18.0855 13.8776C19.0926 16.2604 19.639 18.8123 19.696 21.3985C19.7379 23.5163 19.6542 26.2283 18.1831 27.9173L21.622 24.2291C20.3636 25.4928 18.53 25.3028 16.9543 25.8397C16.1996 26.0976 15.743 26.5508 15.2113 27.1155C14.4828 27.8789 13.7612 28.6505 13.0466 29.4302C12.6561 29.8537 12.1838 30.2773 11.8997 30.788C10.8347 32.7052 13.0448 34.4709 14.4706 35.3337C15.9905 36.2505 17.7421 37.3032 17.662 39.3286C17.6236 40.3186 17.2001 41.2458 16.6998 42.0894C16.4278 42.5436 16.1274 42.9803 15.8005 43.3967L15.6628 43.571C14.739 44.6992 15.539 43.8487 18.0629 41.0192C17.7613 41.2999 17.4615 41.5753 17.1408 41.8332C15.6256 43.0562 13.8684 43.9443 11.9851 44.439C10.1532 44.9148 8.0233 45.0403 6.32564 44.0607C4.62798 43.0812 3.92208 41.1988 3.68503 39.3547C3.36433 36.8657 3.61531 34.2443 4.01097 31.7797C4.4423 29.1087 5.17255 26.4947 6.18795 23.9869C6.13566 24.1176 5.7034 24.4801 5.65285 24.5342C5.22757 24.9804 4.80751 25.4301 4.38571 25.8797C3.96391 26.3294 3.54734 26.7826 3.13076 27.2375C2.98435 27.3979 2.70199 27.6123 2.62182 27.811C1.01311 31.7792 0.127655 36.0034 0.00734844 40.2837C-0.0763145 43.6511 0.502354 47.7593 4.45717 48.5001C7.80892 49.1293 11.4883 47.4822 13.9756 45.3209C15.8388 43.7034 17.5783 41.7705 19.1383 39.8619C20.2032 38.5599 21.3693 36.85 21.2107 35.0861C21.0364 33.1584 19.1853 32.2312 17.7247 31.33C16.2641 30.4289 14.2388 28.4071 15.6872 26.6519L12.2483 30.3383C13.4039 29.1775 15.3856 29.4319 16.8236 28.8689C17.838 28.4715 18.5143 27.614 19.2411 26.8419C20.252 25.7682 21.507 24.7015 22.253 23.4047C23.2988 21.5868 23.3389 19.1431 23.2517 17.1108C23.1402 14.6882 22.5996 12.3046 21.6551 10.0709C21.7092 10.1999 20.0167 11.7895 19.8529 11.9655C19.4328 12.4152 19.0128 12.8667 18.5979 13.3216C18.5335 13.3913 18.0646 13.8358 18.089 13.895L18.0855 13.8776Z" fill="black"/>
<path d="M14.7599 7.94798C16.0739 8.92789 17.2387 10.0933 18.218 11.4078C18.1936 11.3747 19.8825 9.66481 20.0202 9.51318C20.1579 9.36154 21.8556 7.67956 21.7841 7.5837C20.8052 6.26889 19.6404 5.10342 18.326 4.12389C18.1517 3.99142 14.8732 8.03513 14.7599 7.94798Z" fill="black"/>
<path d="M57.4698 46.5079C56.4963 48.2 55.8217 50.0473 55.4759 51.9686C55.3052 52.9277 55.2194 53.9 55.2197 54.8742C55.2197 55.6969 55.1883 56.7374 55.7147 57.4294C56.1609 58.015 56.9347 58.2102 57.5204 57.7274C58.6882 56.7583 59.6974 55.4476 60.7153 54.3251C61.2103 53.7778 61.5606 53.234 61.1963 52.4846C60.7972 51.6671 59.7897 51.4266 58.9827 51.2314C58.9357 51.2192 58.3901 51.8396 58.4477 51.7786C58.0224 52.2248 57.6023 52.6745 57.1805 53.126C56.7587 53.5774 56.3421 54.0271 55.9256 54.482C55.8646 54.55 55.4619 55.0659 55.4166 55.0554C56.5426 55.3274 58.6045 56.2529 57.5204 57.7274L61.0865 53.9033C60.2028 54.6511 59.2093 53.7953 58.9479 52.8872C58.6464 51.8414 58.7579 50.583 58.8573 49.5145C59.0883 47.1083 59.8312 44.7794 61.036 42.6838C60.874 42.8821 60.6943 43.0653 60.4991 43.2311C60.0739 43.6773 59.6538 44.127 59.2337 44.5784C58.676 45.1762 57.8777 45.7985 57.4698 46.5079Z" fill="black"/>
</svg>
